<mxfile host="Electron" modified="2025-09-16T13:08:14.789Z" agent="Mozilla/5.0 (Windows NT 10.0; Win64; x64) AppleWebKit/537.36 (KHTML, like Gecko) draw.io/23.1.5 Chrome/120.0.6099.109 Electron/28.1.0 Safari/537.36" etag="-JECZhEqJNPCzpUKcHKv" version="23.1.5" type="device">
  <diagram name="Page-1" id="aXEnYEKyhN8AeZee-PJk">
    <mxGraphModel dx="2759" dy="1129" grid="1" gridSize="10" guides="1" tooltips="1" connect="1" arrows="1" fold="1" page="1" pageScale="1" pageWidth="850" pageHeight="1100" math="0" shadow="0">
      <root>
        <mxCell id="0" />
        <mxCell id="1" parent="0" />
        <mxCell id="GjiIn_hF7nIfVmCUH7G8-6" value="&lt;u&gt;Man hinh&lt;/u&gt;" style="shape=umlLifeline;perimeter=lifelinePerimeter;whiteSpace=wrap;html=1;container=1;dropTarget=0;collapsible=0;recursiveResize=0;outlineConnect=0;portConstraint=eastwest;newEdgeStyle={&quot;curved&quot;:0,&quot;rounded&quot;:0};" parent="1" vertex="1">
          <mxGeometry x="-400" y="240" width="100" height="780" as="geometry" />
        </mxCell>
        <mxCell id="GjiIn_hF7nIfVmCUH7G8-10" value="" style="html=1;points=[[0,0,0,0,5],[0,1,0,0,-5],[1,0,0,0,5],[1,1,0,0,-5]];perimeter=orthogonalPerimeter;outlineConnect=0;targetShapes=umlLifeline;portConstraint=eastwest;newEdgeStyle={&quot;curved&quot;:0,&quot;rounded&quot;:0};" parent="GjiIn_hF7nIfVmCUH7G8-6" vertex="1">
          <mxGeometry x="45" y="110" width="10" height="120" as="geometry" />
        </mxCell>
        <mxCell id="0sUOa91W975uKAJytAfK-1" value="" style="html=1;points=[[0,0,0,0,5],[0,1,0,0,-5],[1,0,0,0,5],[1,1,0,0,-5]];perimeter=orthogonalPerimeter;outlineConnect=0;targetShapes=umlLifeline;portConstraint=eastwest;newEdgeStyle={&quot;curved&quot;:0,&quot;rounded&quot;:0};" vertex="1" parent="GjiIn_hF7nIfVmCUH7G8-6">
          <mxGeometry x="45" y="600" width="10" height="80" as="geometry" />
        </mxCell>
        <mxCell id="0sUOa91W975uKAJytAfK-3" value="" style="shape=umlDestroy;whiteSpace=wrap;html=1;strokeWidth=3;targetShapes=umlLifeline;" vertex="1" parent="GjiIn_hF7nIfVmCUH7G8-6">
          <mxGeometry x="35" y="660" width="30" height="30" as="geometry" />
        </mxCell>
        <mxCell id="0sUOa91W975uKAJytAfK-12" value="[rut tien]:Withdraw()" style="edgeStyle=orthogonalEdgeStyle;rounded=0;orthogonalLoop=1;jettySize=auto;html=1;strokeColor=default;align=center;verticalAlign=middle;fontFamily=Helvetica;fontSize=11;fontColor=default;labelBackgroundColor=default;endArrow=classic;" edge="1" parent="GjiIn_hF7nIfVmCUH7G8-6" source="0sUOa91W975uKAJytAfK-10" target="0sUOa91W975uKAJytAfK-1">
          <mxGeometry relative="1" as="geometry">
            <Array as="points">
              <mxPoint x="150" y="455" />
              <mxPoint x="150" y="640" />
            </Array>
          </mxGeometry>
        </mxCell>
        <mxCell id="0sUOa91W975uKAJytAfK-10" value="" style="html=1;points=[[0,0,0,0,5],[0,1,0,0,-5],[1,0,0,0,5],[1,1,0,0,-5]];perimeter=orthogonalPerimeter;outlineConnect=0;targetShapes=umlLifeline;portConstraint=eastwest;newEdgeStyle={&quot;curved&quot;:0,&quot;rounded&quot;:0};fontFamily=Helvetica;fontSize=11;fontColor=default;labelBackgroundColor=default;" vertex="1" parent="GjiIn_hF7nIfVmCUH7G8-6">
          <mxGeometry x="45" y="380" width="10" height="80" as="geometry" />
        </mxCell>
        <mxCell id="GjiIn_hF7nIfVmCUH7G8-7" value="&lt;u&gt;Register&lt;/u&gt;" style="shape=umlLifeline;perimeter=lifelinePerimeter;whiteSpace=wrap;html=1;container=1;dropTarget=0;collapsible=0;recursiveResize=0;outlineConnect=0;portConstraint=eastwest;newEdgeStyle={&quot;curved&quot;:0,&quot;rounded&quot;:0};" parent="1" vertex="1">
          <mxGeometry x="-170" y="240" width="100" height="780" as="geometry" />
        </mxCell>
        <mxCell id="GjiIn_hF7nIfVmCUH7G8-14" value="" style="html=1;points=[[0,0,0,0,5],[0,1,0,0,-5],[1,0,0,0,5],[1,1,0,0,-5]];perimeter=orthogonalPerimeter;outlineConnect=0;targetShapes=umlLifeline;portConstraint=eastwest;newEdgeStyle={&quot;curved&quot;:0,&quot;rounded&quot;:0};" parent="GjiIn_hF7nIfVmCUH7G8-7" vertex="1">
          <mxGeometry x="45" y="170" width="10" height="190" as="geometry" />
        </mxCell>
        <mxCell id="GjiIn_hF7nIfVmCUH7G8-9" value="&lt;u&gt;Database&lt;/u&gt;" style="shape=umlLifeline;perimeter=lifelinePerimeter;whiteSpace=wrap;html=1;container=1;dropTarget=0;collapsible=0;recursiveResize=0;outlineConnect=0;portConstraint=eastwest;newEdgeStyle={&quot;curved&quot;:0,&quot;rounded&quot;:0};" parent="1" vertex="1">
          <mxGeometry x="100" y="240" width="100" height="780" as="geometry" />
        </mxCell>
        <mxCell id="GjiIn_hF7nIfVmCUH7G8-16" value="" style="html=1;points=[[0,0,0,0,5],[0,1,0,0,-5],[1,0,0,0,5],[1,1,0,0,-5]];perimeter=orthogonalPerimeter;outlineConnect=0;targetShapes=umlLifeline;portConstraint=eastwest;newEdgeStyle={&quot;curved&quot;:0,&quot;rounded&quot;:0};" parent="GjiIn_hF7nIfVmCUH7G8-9" vertex="1">
          <mxGeometry x="45" y="200" width="10" height="80" as="geometry" />
        </mxCell>
        <mxCell id="0sUOa91W975uKAJytAfK-4" value="" style="html=1;points=[[0,0,0,0,5],[0,1,0,0,-5],[1,0,0,0,5],[1,1,0,0,-5]];perimeter=orthogonalPerimeter;outlineConnect=0;targetShapes=umlLifeline;portConstraint=eastwest;newEdgeStyle={&quot;curved&quot;:0,&quot;rounded&quot;:0};" vertex="1" parent="GjiIn_hF7nIfVmCUH7G8-9">
          <mxGeometry x="45" y="300" width="10" height="310" as="geometry" />
        </mxCell>
        <mxCell id="0sUOa91W975uKAJytAfK-7" value="" style="html=1;points=[[0,0,0,0,5],[0,1,0,0,-5],[1,0,0,0,5],[1,1,0,0,-5]];perimeter=orthogonalPerimeter;outlineConnect=0;targetShapes=umlLifeline;portConstraint=eastwest;newEdgeStyle={&quot;curved&quot;:0,&quot;rounded&quot;:0};fontFamily=Helvetica;fontSize=11;fontColor=default;labelBackgroundColor=default;" vertex="1" parent="GjiIn_hF7nIfVmCUH7G8-9">
          <mxGeometry x="55" y="420" width="10" height="40" as="geometry" />
        </mxCell>
        <mxCell id="0sUOa91W975uKAJytAfK-8" value="[Du so luong]:Update()" style="html=1;align=left;spacingLeft=2;endArrow=block;rounded=0;edgeStyle=orthogonalEdgeStyle;curved=0;rounded=0;strokeColor=default;verticalAlign=middle;fontFamily=Helvetica;fontSize=11;fontColor=default;labelBackgroundColor=default;" edge="1" target="0sUOa91W975uKAJytAfK-7" parent="GjiIn_hF7nIfVmCUH7G8-9" source="0sUOa91W975uKAJytAfK-4">
          <mxGeometry relative="1" as="geometry">
            <mxPoint x="60" y="370" as="sourcePoint" />
            <Array as="points">
              <mxPoint x="90" y="360" />
              <mxPoint x="90" y="440" />
            </Array>
          </mxGeometry>
        </mxCell>
        <mxCell id="GjiIn_hF7nIfVmCUH7G8-11" value="Insert(Input)" style="endArrow=open;endFill=1;endSize=12;html=1;rounded=0;" parent="1" source="GjiIn_hF7nIfVmCUH7G8-12" target="GjiIn_hF7nIfVmCUH7G8-10" edge="1">
          <mxGeometry width="160" relative="1" as="geometry">
            <mxPoint x="-500" y="510" as="sourcePoint" />
            <mxPoint x="120" y="530" as="targetPoint" />
            <Array as="points">
              <mxPoint x="-460" y="360" />
            </Array>
          </mxGeometry>
        </mxCell>
        <mxCell id="GjiIn_hF7nIfVmCUH7G8-12" value="" style="shape=umlLifeline;perimeter=lifelinePerimeter;whiteSpace=wrap;html=1;container=1;dropTarget=0;collapsible=0;recursiveResize=0;outlineConnect=0;portConstraint=eastwest;newEdgeStyle={&quot;curved&quot;:0,&quot;rounded&quot;:0};participant=umlActor;" parent="1" vertex="1">
          <mxGeometry x="-580" y="240" width="20" height="750" as="geometry" />
        </mxCell>
        <mxCell id="GjiIn_hF7nIfVmCUH7G8-13" value="Select(Selection)" style="endArrow=open;endFill=1;endSize=12;html=1;rounded=0;" parent="1" source="GjiIn_hF7nIfVmCUH7G8-12" target="GjiIn_hF7nIfVmCUH7G8-10" edge="1">
          <mxGeometry width="160" relative="1" as="geometry">
            <mxPoint x="-561" y="370" as="sourcePoint" />
            <mxPoint x="-345" y="370" as="targetPoint" />
            <Array as="points">
              <mxPoint x="-440" y="390" />
            </Array>
          </mxGeometry>
        </mxCell>
        <mxCell id="GjiIn_hF7nIfVmCUH7G8-15" value="Select(Input,Selection)" style="endArrow=open;endFill=1;endSize=12;html=1;rounded=0;" parent="1" source="GjiIn_hF7nIfVmCUH7G8-10" target="GjiIn_hF7nIfVmCUH7G8-14" edge="1">
          <mxGeometry width="160" relative="1" as="geometry">
            <mxPoint x="-561" y="400" as="sourcePoint" />
            <mxPoint x="-345" y="400" as="targetPoint" />
            <Array as="points">
              <mxPoint x="-230" y="440" />
            </Array>
          </mxGeometry>
        </mxCell>
        <mxCell id="GjiIn_hF7nIfVmCUH7G8-17" value="Get(Selection)" style="endArrow=open;endFill=1;endSize=12;html=1;rounded=0;" parent="1" source="GjiIn_hF7nIfVmCUH7G8-14" target="GjiIn_hF7nIfVmCUH7G8-16" edge="1">
          <mxGeometry width="160" relative="1" as="geometry">
            <mxPoint x="-335" y="450" as="sourcePoint" />
            <mxPoint x="-115" y="450" as="targetPoint" />
            <Array as="points">
              <mxPoint x="20" y="480" />
            </Array>
          </mxGeometry>
        </mxCell>
        <mxCell id="GjiIn_hF7nIfVmCUH7G8-18" value="Price" style="html=1;verticalAlign=bottom;endArrow=open;dashed=1;endSize=8;curved=0;rounded=0;" parent="1" source="GjiIn_hF7nIfVmCUH7G8-16" target="GjiIn_hF7nIfVmCUH7G8-14" edge="1">
          <mxGeometry relative="1" as="geometry">
            <mxPoint x="80" y="420" as="sourcePoint" />
            <mxPoint y="420" as="targetPoint" />
            <Array as="points">
              <mxPoint x="10" y="510" />
            </Array>
          </mxGeometry>
        </mxCell>
        <mxCell id="GjiIn_hF7nIfVmCUH7G8-20" style="rounded=0;orthogonalLoop=1;jettySize=auto;html=1;exitX=1;exitY=0;exitDx=0;exitDy=5;exitPerimeter=0;endArrow=none;endFill=0;dashed=1;" parent="1" source="GjiIn_hF7nIfVmCUH7G8-19" target="GjiIn_hF7nIfVmCUH7G8-6" edge="1">
          <mxGeometry relative="1" as="geometry">
            <Array as="points">
              <mxPoint x="-370" y="520" />
            </Array>
          </mxGeometry>
        </mxCell>
        <mxCell id="GjiIn_hF7nIfVmCUH7G8-22" style="edgeStyle=none;rounded=0;orthogonalLoop=1;jettySize=auto;html=1;curved=0;exitX=1;exitY=1;exitDx=0;exitDy=-5;exitPerimeter=0;dashed=1;strokeColor=default;align=center;verticalAlign=middle;fontFamily=Helvetica;fontSize=11;fontColor=default;labelBackgroundColor=default;endArrow=none;endFill=0;" parent="1" source="GjiIn_hF7nIfVmCUH7G8-19" target="GjiIn_hF7nIfVmCUH7G8-6" edge="1">
          <mxGeometry relative="1" as="geometry">
            <Array as="points">
              <mxPoint x="-370" y="770" />
            </Array>
          </mxGeometry>
        </mxCell>
        <mxCell id="0sUOa91W975uKAJytAfK-2" value="[[rut tien]:Withdraw()" style="edgeStyle=orthogonalEdgeStyle;rounded=0;orthogonalLoop=1;jettySize=auto;html=1;curved=0;exitX=0;exitY=1;exitDx=0;exitDy=-5;exitPerimeter=0;" edge="1" parent="1" source="GjiIn_hF7nIfVmCUH7G8-19" target="0sUOa91W975uKAJytAfK-1">
          <mxGeometry relative="1" as="geometry" />
        </mxCell>
        <mxCell id="GjiIn_hF7nIfVmCUH7G8-19" value="" style="html=1;points=[[0,0,0,0,5],[0,1,0,0,-5],[1,0,0,0,5],[1,1,0,0,-5]];perimeter=orthogonalPerimeter;outlineConnect=0;targetShapes=umlLifeline;portConstraint=eastwest;newEdgeStyle={&quot;curved&quot;:0,&quot;rounded&quot;:0};" parent="1" vertex="1">
          <mxGeometry x="-410" y="570" width="10" height="160" as="geometry" />
        </mxCell>
        <mxCell id="GjiIn_hF7nIfVmCUH7G8-23" value="[input&amp;lt;price]:ThongBao()" style="endArrow=open;endFill=1;endSize=12;html=1;rounded=0;" parent="1" source="GjiIn_hF7nIfVmCUH7G8-14" target="GjiIn_hF7nIfVmCUH7G8-19" edge="1">
          <mxGeometry width="160" relative="1" as="geometry">
            <mxPoint x="-105" y="490" as="sourcePoint" />
            <mxPoint x="155" y="490" as="targetPoint" />
            <Array as="points" />
          </mxGeometry>
        </mxCell>
        <mxCell id="0sUOa91W975uKAJytAfK-5" value="[input&amp;gt;=price]:Check(Selection)" style="rounded=0;orthogonalLoop=1;jettySize=auto;html=1;" edge="1" parent="1" source="GjiIn_hF7nIfVmCUH7G8-14" target="0sUOa91W975uKAJytAfK-4">
          <mxGeometry relative="1" as="geometry">
            <Array as="points">
              <mxPoint x="20" y="580" />
            </Array>
          </mxGeometry>
        </mxCell>
        <mxCell id="0sUOa91W975uKAJytAfK-9" value="[so luong khong du]:SoldOut(list)" style="edgeStyle=none;rounded=0;orthogonalLoop=1;jettySize=auto;html=1;curved=0;strokeColor=default;align=center;verticalAlign=middle;fontFamily=Helvetica;fontSize=11;fontColor=default;labelBackgroundColor=default;endArrow=classic;" edge="1" parent="1" source="0sUOa91W975uKAJytAfK-4" target="0sUOa91W975uKAJytAfK-10">
          <mxGeometry relative="1" as="geometry">
            <mxPoint x="-250" y="660" as="targetPoint" />
            <Array as="points">
              <mxPoint x="-100" y="630" />
            </Array>
          </mxGeometry>
        </mxCell>
        <mxCell id="0sUOa91W975uKAJytAfK-11" value="[input&amp;gt;price]:Change()" style="edgeStyle=none;rounded=0;orthogonalLoop=1;jettySize=auto;html=1;curved=0;strokeColor=default;align=center;verticalAlign=middle;fontFamily=Helvetica;fontSize=11;fontColor=default;labelBackgroundColor=default;endArrow=classic;" edge="1" parent="1" source="0sUOa91W975uKAJytAfK-4" target="0sUOa91W975uKAJytAfK-1">
          <mxGeometry relative="1" as="geometry" />
        </mxCell>
      </root>
    </mxGraphModel>
  </diagram>
</mxfile>
